<svg xmlns="http://www.w3.org/2000/svg" viewBox="0 0 48 48" width="48" height="48">
  <g fill="#3ddc84">
    <!-- Head -->
    <path d="M14 18h20c0-5.52-4.48-10-10-10s-10 4.48-10 10z"/>
    <!-- Eyes -->
    <circle cx="19" cy="13" r="1.5" fill="#0a0a0f"/>
    <circle cx="29" cy="13" r="1.5" fill="#0a0a0f"/>
    <!-- Antennas -->
    <rect x="16.2" y="2" width="1.6" height="6" rx="0.8" transform="rotate(-30 17 5)"/>
    <rect x="30.2" y="2" width="1.6" height="6" rx="0.8" transform="rotate(30 31 5)"/>
    <!-- Body -->
    <rect x="14" y="19" width="20" height="16" rx="2"/>
    <!-- Arms -->
    <rect x="7" y="19" width="5" height="12" rx="2.5"/>
    <rect x="36" y="19" width="5" height="12" rx="2.5"/>
    <!-- Legs -->
    <rect x="18" y="36" width="5" height="8" rx="2.5"/>
    <rect x="25" y="36" width="5" height="8" rx="2.5"/>
  </g>
</svg>
